<?xml version="1.0" encoding="UTF-8" standalone="no"?>
<!DOCTYPE svg PUBLIC "-//W3C//DTD SVG 1.1//EN" "http://www.w3.org/Graphics/SVG/1.1/DTD/svg11.dtd">
<svg width="100%" height="100%" viewBox="0 0 2943 511" version="1.1" xmlns="http://www.w3.org/2000/svg" xmlns:xlink="http://www.w3.org/1999/xlink" xml:space="preserve" xmlns:serif="http://www.serif.com/" style="fill-rule:evenodd;clip-rule:evenodd;stroke-linejoin:round;stroke-miterlimit:2;">
    <g id="Layer-1" serif:id="Layer 1" transform="matrix(4.16667,0,0,4.16667,0,0)">
        <g transform="matrix(1,0,0,1,45.0279,89.6975)">
            <path d="M0,-58.046L-10.457,-58.046C-11.24,-58.046 -11.875,-57.412 -11.875,-56.629L-11.875,-32.201C-11.875,-31.419 -11.24,-30.784 -10.457,-30.784L-2.201,-30.784C8.463,-30.784 16.49,-34.302 16.49,-44.193C16.49,-52.879 9.783,-58.046 0,-58.046M0.549,-21.328L-10.457,-21.328C-11.24,-21.328 -11.875,-20.693 -11.875,-19.911L-11.875,8.04C-11.875,8.823 -12.509,9.457 -13.292,9.457L-21.012,9.457C-21.794,9.457 -22.429,8.823 -22.429,8.04L-22.429,-66.086C-22.429,-66.868 -21.794,-67.503 -21.012,-67.503L0.549,-67.503C12.972,-67.503 27.704,-61.345 27.704,-44.525C27.704,-27.486 13.082,-21.328 0.549,-21.328" style="fill:white;fill-rule:nonzero;"/>
        </g>
        <g transform="matrix(1,0,0,1,142.096,23.612)">
            <path d="M0,74.126L0,41.998C0,41.216 -0.634,40.581 -1.417,40.581L-39.261,40.581C-40.043,40.581 -40.678,41.216 -40.678,41.998L-40.678,74.126C-40.678,74.908 -41.313,75.543 -42.095,75.543L-49.815,75.543C-50.598,75.543 -51.232,74.908 -51.232,74.126L-51.232,0C-51.232,-0.783 -50.598,-1.417 -49.815,-1.417L-42.095,-1.417C-41.313,-1.417 -40.678,-0.783 -40.678,0L-40.678,29.707C-40.678,30.49 -40.043,31.125 -39.261,31.125L-1.417,31.125C-0.634,31.125 0,30.49 0,29.707L0,0C0,-0.783 0.635,-1.417 1.417,-1.417L9.137,-1.417C9.92,-1.417 10.555,-0.783 10.555,0L10.555,74.126C10.555,74.908 9.92,75.543 9.137,75.543L1.417,75.543C0.635,75.543 0,74.908 0,74.126" style="fill:white;fill-rule:nonzero;"/>
        </g>
        <g transform="matrix(1,0,0,1,173.429,23.612)">
            <path d="M0,74.126L0,0C0,-0.783 0.634,-1.417 1.417,-1.417L9.137,-1.417C9.92,-1.417 10.554,-0.783 10.554,0L10.554,74.126C10.554,74.908 9.92,75.543 9.137,75.543L1.417,75.543C0.634,75.543 0,74.908 0,74.126" style="fill:white;fill-rule:nonzero;"/>
        </g>
        <g transform="matrix(1,0,0,1,204.767,23.612)">
            <path d="M0,74.126L0,0C0,-0.783 0.635,-1.417 1.417,-1.417L9.137,-1.417C9.92,-1.417 10.555,-0.783 10.555,0L10.555,64.669C10.555,65.452 11.189,66.086 11.972,66.086L42.56,66.086C43.342,66.086 43.977,66.721 43.977,67.504L43.977,74.126C43.977,74.908 43.342,75.543 42.56,75.543L1.417,75.543C0.635,75.543 0,74.908 0,74.126" style="fill:white;fill-rule:nonzero;"/>
        </g>
        <g transform="matrix(1,0,0,1,321.073,56.9368)">
            <path d="M0,7.476L-11.855,7.476C-12.108,7.476 -12.313,7.681 -12.313,7.934L-12.313,32.524C-12.313,32.776 -12.108,32.981 -11.855,32.981L-6.487,32.981C-0.109,32.981 5.497,32.655 9.784,30.673C13.524,28.912 16.051,25.725 16.051,20.451C16.051,12.75 10.445,7.476 0,7.476M9.125,-22.65C5.167,-25.178 -0.439,-25.505 -7.036,-25.505L-11.855,-25.505C-12.108,-25.505 -12.313,-25.3 -12.313,-25.047L-12.313,-2.219C-12.313,-1.966 -12.108,-1.761 -11.855,-1.761L-4.948,-1.761C6.597,-1.761 13.524,-5.387 13.524,-13.414C13.524,-18.142 11.875,-20.889 9.125,-22.65M-22.868,-34.284C-22.868,-34.537 -22.663,-34.742 -22.41,-34.742L-4.508,-34.742C2.748,-34.742 10.335,-33.532 15.941,-29.906C21.329,-26.388 24.078,-20.67 24.078,-13.965C24.078,-7.045 21.078,-1.825 13.457,1.505C13.072,1.673 13.107,2.223 13.504,2.358C22.615,5.466 27.265,11.587 27.265,20.338C27.265,29.024 22.429,35.84 14.731,39.139C8.905,41.559 1.43,42.218 -5.497,42.218L-22.41,42.218C-22.663,42.218 -22.868,42.013 -22.868,41.76L-22.868,-34.284Z" style="fill:white;fill-rule:nonzero;"/>
        </g>
        <g transform="matrix(1,0,0,1,402.699,91.0203)">
            <path d="M0,-60.691C-16.381,-60.691 -28.365,-47.39 -28.365,-30.345C-28.365,-13.306 -16.381,-0.004 0,-0.004C16.383,-0.004 28.364,-13.306 28.364,-30.345C28.364,-47.39 16.383,-60.691 0,-60.691M0,9.452C-22.429,9.452 -39.578,-8.358 -39.578,-30.345C-39.578,-52.333 -22.429,-70.143 0,-70.143C22.429,-70.143 39.58,-52.333 39.58,-30.345C39.58,-8.358 22.429,9.452 0,9.452" style="fill:white;fill-rule:nonzero;"/>
        </g>
        <g transform="matrix(1,0,0,1,523.32,41.0959)">
            <path d="M0,39.146L0.22,39.146L16.094,-17.864C16.265,-18.477 16.823,-18.901 17.46,-18.901L25.717,-18.901C26.659,-18.901 27.339,-18 27.08,-17.094L5.902,57.031C5.729,57.639 5.173,58.059 4.54,58.059L-4.38,58.059C-4.719,58.059 -5.02,57.844 -5.13,57.525L-20.338,-0.551L-20.558,-0.551L-37.077,57.544C-37.193,57.854 -37.489,58.059 -37.819,58.059L-46.524,58.059C-47.162,58.059 -47.722,57.632 -47.891,57.017L-68.223,-17.109C-68.47,-18.011 -67.791,-18.901 -66.855,-18.901L-58.149,-18.901C-57.507,-18.901 -56.944,-18.468 -56.779,-17.847L-41.667,39.146L-41.447,39.146L-25.477,-18.393C-25.362,-18.705 -25.064,-18.913 -24.732,-18.913L-15.953,-18.913C-15.616,-18.913 -15.315,-18.7 -15.204,-18.381L0,39.146Z" style="fill:white;fill-rule:nonzero;"/>
        </g>
        <g transform="matrix(1,0,0,1,568.49,23.612)">
            <path d="M0,74.126L0,0C0,-0.783 0.635,-1.417 1.417,-1.417L44.758,-1.417C45.54,-1.417 46.175,-0.783 46.175,0L46.175,6.622C46.175,7.405 45.54,8.04 44.758,8.04L11.972,8.04C11.188,8.04 10.555,8.674 10.555,9.457L10.555,29.707C10.555,30.49 11.188,31.125 11.972,31.125L44.758,31.125C45.54,31.125 46.175,31.759 46.175,32.542L46.175,39.164C46.175,39.946 45.54,40.581 44.758,40.581L11.972,40.581C11.188,40.581 10.555,41.216 10.555,41.998L10.555,64.669C10.555,65.452 11.188,66.086 11.972,66.086L44.758,66.086C45.54,66.086 46.175,66.721 46.175,67.504L46.175,74.126C46.175,74.908 45.54,75.543 44.758,75.543L1.417,75.543C0.635,75.543 0,74.908 0,74.126" style="fill:white;fill-rule:nonzero;"/>
        </g>
        <g transform="matrix(1,0,0,1,637.743,23.612)">
            <path d="M0,74.126L0,0C0,-0.783 0.634,-1.417 1.417,-1.417L9.137,-1.417C9.92,-1.417 10.554,-0.783 10.554,0L10.554,64.669C10.554,65.452 11.188,66.086 11.972,66.086L42.56,66.086C43.342,66.086 43.977,66.721 43.977,67.504L43.977,74.126C43.977,74.908 43.342,75.543 42.56,75.543L1.417,75.543C0.634,75.543 0,74.908 0,74.126" style="fill:white;fill-rule:nonzero;"/>
        </g>
        <g transform="matrix(1,0,0,1,658.326,23.6116)">
            <path d="M0,55.768L0,-0C0,-0.782 0.635,-1.417 1.417,-1.417L9.137,-1.417C9.92,-1.417 10.555,-0.782 10.555,-0L10.555,46.311C10.555,47.094 11.188,47.729 11.972,47.729L21.977,47.729C22.759,47.729 23.394,48.363 23.394,49.146L23.394,55.768C23.394,56.55 22.759,57.185 21.977,57.185L1.417,57.185C0.635,57.185 0,56.55 0,55.768" style="fill:white;fill-rule:nonzero;"/>
        </g>
    </g>
</svg>
