<?xml version="1.0" encoding="UTF-8" standalone="no"?>
<!DOCTYPE svg PUBLIC "-//W3C//DTD SVG 1.1//EN" "http://www.w3.org/Graphics/SVG/1.1/DTD/svg11.dtd">
<svg width="100%" height="100%" viewBox="0 0 2048 2048" version="1.1" xmlns="http://www.w3.org/2000/svg" xmlns:xlink="http://www.w3.org/1999/xlink" xml:space="preserve" xmlns:serif="http://www.serif.com/" style="fill-rule:evenodd;clip-rule:evenodd;stroke-linejoin:round;stroke-miterlimit:2;">
    <g transform="matrix(1,0,0,1,-2304,0)">
        <g id="Page-2" serif:id="Page 2" transform="matrix(1,0,0,1,2304,0)">
            <rect x="0" y="0" width="2048" height="2048" style="fill:none;"/>
            <g id="Layer-1" serif:id="Layer 1">
                <g transform="matrix(1.88869,0,0,2.06908,1872.2,1846.92)">
                    <path d="M0,68.757L-873.133,68.757C-882.354,68.757 -889.828,64.623 -889.828,59.524L-889.828,9.234C-889.828,4.134 -882.354,0 -873.133,0L0,0C9.221,0 16.695,4.134 16.695,9.234L16.695,59.524C16.695,64.623 9.221,68.757 0,68.757" style="fill:white;fill-rule:nonzero;"/>
                </g>
                <g transform="matrix(1.88869,0,0,2.06908,1872.2,1571.45)">
                    <path d="M0,68.757L-873.133,68.757C-882.354,68.757 -889.828,64.623 -889.828,59.524L-889.828,9.233C-889.828,4.134 -882.354,0 -873.133,0L0,0C9.221,0 16.695,4.134 16.695,9.233L16.695,59.524C16.695,64.623 9.221,68.757 0,68.757" style="fill:white;fill-rule:nonzero;"/>
                </g>
                <g transform="matrix(1.88869,0,0,2.06908,588.401,1077.86)">
                    <path d="M0,-420.966L-75.836,-420.966C-81.513,-420.966 -86.115,-416.364 -86.115,-410.688L-86.115,-233.536C-86.115,-227.859 -81.513,-223.258 -75.836,-223.258L-15.959,-223.258C61.38,-223.258 119.592,-248.772 119.592,-320.502C119.592,-383.491 70.952,-420.966 0,-420.966M3.981,-154.677L-75.836,-154.677C-81.513,-154.677 -86.115,-150.075 -86.115,-144.398L-86.115,58.303C-86.115,63.98 -90.717,68.581 -96.394,68.581L-152.379,68.581C-158.056,68.581 -162.657,63.98 -162.657,58.303L-162.657,-479.268C-162.657,-484.945 -158.056,-489.547 -152.379,-489.547L3.981,-489.547C94.077,-489.547 200.911,-444.888 200.911,-322.908C200.911,-199.336 94.873,-154.677 3.981,-154.677" style="fill:white;fill-rule:nonzero;"/>
                </g>
                <g transform="matrix(1.88869,0,0,2.06908,1440.68,586.27)">
                    <path d="M0,54.214L-85.979,54.214C-87.813,54.214 -89.3,55.7 -89.3,57.534L-89.3,235.862C-89.3,237.696 -87.813,239.183 -85.979,239.183L-47.047,239.183C-0.796,239.183 39.864,236.813 70.952,222.444C98.076,209.67 116.407,186.562 116.407,148.309C116.407,92.467 75.747,54.214 0,54.214M66.175,-164.267C37.476,-182.598 -3.185,-184.969 -51.028,-184.969L-85.979,-184.969C-87.813,-184.969 -89.3,-183.482 -89.3,-181.649L-89.3,-16.095C-89.3,-14.261 -87.813,-12.774 -85.979,-12.774L-35.883,-12.774C47.844,-12.774 98.076,-39.067 98.076,-97.279C98.076,-131.57 86.115,-151.493 66.175,-164.267M-165.842,-248.637C-165.842,-250.471 -164.355,-251.957 -162.521,-251.957L-32.697,-251.957C19.924,-251.957 74.95,-243.181 115.61,-216.888C154.678,-191.374 174.619,-149.9 174.619,-101.278C174.619,-51.094 152.861,-13.236 97.589,10.912C94.801,12.13 95.055,16.116 97.935,17.099C164.005,39.637 197.727,84.028 197.727,147.495C197.727,210.484 162.658,259.92 106.835,283.842C64.582,301.394 10.369,306.171 -39.863,306.171L-162.521,306.171C-164.355,306.171 -165.842,304.685 -165.842,302.851L-165.842,-248.637Z" style="fill:white;fill-rule:nonzero;"/>
                </g>
            </g>
        </g>
    </g>
</svg>
